# xmcd CD database file
#
# Track frame offsets:
#	150
#	20040
#	31747
#	55432
#	93685
#	114060
#	139482
#	161520
#	189525
#	207885
#	222470
#	252355
#	263927
#
# Disc length: 3809 seconds
#
# Revision: 0
# Processed by: cddbd v1.4PL0 Copyright (c) Steve Scherf et al.
# Submitted via: CDex 1.51
#
DISCID=c10edf0d
DTITLE=Pia Olby and Arne Forsén - Ur Hjärtans Djup
DYEAR=1900
DGENRE=Jazz
TTITLE0=En långtrasig visa 
TTITLE1=Telegram för en bombad by
TTITLE2=Höst 
TTITLE3=Ambrosia 
TTITLE4=Spleen 
TTITLE5=Där är polisen
TTITLE6=Lasse liten blues
TTITLE7=Sweet Summer
TTITLE8=Grimasch om morgonen
TTITLE9=Dröm 
TTITLE10=Why Coffe
TTITLE11=A Little Song
TTITLE12=Hur nära är socialismen
EXTD=
EXTT0=
EXTT1=
EXTT2=
EXTT3=
EXTT4=
EXTT5=
EXTT6=
EXTT7=
EXTT8=
EXTT9=
EXTT10=
EXTT11=
EXTT12=
PLAYORDER=
